<svg width="24" height="24" viewBox="0 0 24 24" fill="none" xmlns="http://www.w3.org/2000/svg">
<path d="M18.9498 16.75L15.7248 13.525C15.8915 13.2583 16.0206 12.9458 16.1123 12.5875C16.204 12.2292 16.2498 11.8667 16.2498 11.5C16.2498 10.3167 15.8373 9.31251 15.0123 8.48751C14.1873 7.66251 13.1831 7.25001 11.9998 7.25001C11.6331 7.25001 11.2748 7.29168 10.9248 7.37501C10.5748 7.45835 10.2581 7.59168 9.9748 7.77501L7.2248 5.00001C7.80814 4.73335 8.55397 4.50001 9.4623 4.30001C10.3706 4.10001 11.2581 4.00001 12.1248 4.00001C14.3748 4.00001 16.4498 4.61668 18.3498 5.85001C20.2498 7.08335 21.6998 8.74168 22.6998 10.825C22.7498 10.9083 22.7831 11.0083 22.7998 11.125C22.8165 11.2417 22.8248 11.3667 22.8248 11.5C22.8248 11.6333 22.8165 11.7625 22.7998 11.8875C22.7831 12.0125 22.7498 12.1167 22.6998 12.2C22.2665 13.1167 21.7331 13.9583 21.0998 14.725C20.4665 15.4917 19.7498 16.1667 18.9498 16.75V16.75ZM19.8498 21.85L16.1998 18.275C15.6165 18.5083 14.9581 18.6875 14.2248 18.8125C13.4915 18.9375 12.7498 19 11.9998 19C9.6998 19 7.59147 18.3833 5.6748 17.15C3.75814 15.9167 2.2998 14.2583 1.2998 12.175C1.2498 12.075 1.21647 11.9708 1.1998 11.8625C1.18314 11.7542 1.1748 11.6333 1.1748 11.5C1.1748 11.3667 1.1873 11.2375 1.2123 11.1125C1.2373 10.9875 1.26647 10.8833 1.2998 10.8C1.6498 10.05 2.09564 9.32085 2.6373 8.61251C3.17897 7.90418 3.81647 7.23335 4.5498 6.60001L1.9248 3.97501C1.7748 3.82501 1.6998 3.65001 1.6998 3.45001C1.6998 3.25001 1.7748 3.07501 1.9248 2.92501C2.0748 2.77501 2.25397 2.70001 2.4623 2.70001C2.67064 2.70001 2.8498 2.77501 2.9998 2.92501L20.8998 20.825C21.0331 20.9583 21.0998 21.1208 21.0998 21.3125C21.0998 21.5042 21.0331 21.675 20.8998 21.825C20.7665 21.9917 20.5956 22.075 20.3873 22.075C20.179 22.075 19.9998 22 19.8498 21.85V21.85ZM11.9998 15.75C12.2331 15.75 12.4831 15.7292 12.7498 15.6875C13.0165 15.6458 13.2415 15.5833 13.4248 15.5L7.9998 10.075C7.91647 10.275 7.85397 10.5 7.8123 10.75C7.77064 11 7.7498 11.25 7.7498 11.5C7.7498 12.7 8.16647 13.7083 8.9998 14.525C9.83314 15.3417 10.8331 15.75 11.9998 15.75ZM14.6248 12.425L11.0748 8.87501C12.1081 8.49168 13.0665 8.69168 13.9498 9.47501C14.8331 10.2583 15.0581 11.2417 14.6248 12.425Z" fill="#606880"/>
</svg>
