<svg width="150" height="42" viewBox="0 0 150 42" fill="none" xmlns="http://www.w3.org/2000/svg">
<path d="M21.3378 42C17.1215 42.0015 12.9993 40.7727 9.49203 38.4689C5.98472 36.1651 3.24957 32.8896 1.63207 29.0563C0.0145764 25.2229 -0.412704 21.0036 0.404203 16.9312C1.22111 12.8589 3.24556 9.11628 6.22183 6.17609C9.1981 3.2359 12.9927 1.23006 17.1263 0.411929C21.2598 -0.406202 25.5469 8.12356e-05 29.4461 1.57946C33.3453 3.15883 36.6815 5.84045 39.0335 9.28559C41.3855 12.7307 42.6476 16.7848 42.6605 20.9358C42.6657 23.6974 42.1183 26.433 41.0495 28.9863C39.9807 31.5395 38.4114 33.8605 36.4313 35.8166C34.4512 37.7727 32.0991 39.3255 29.5093 40.3865C26.9195 41.4475 24.1428 41.9957 21.3378 42M17.2177 30.226C17.355 30.2368 17.4361 30.2497 17.5191 30.2497C20.6321 30.2497 23.7427 30.2519 26.8511 30.2564C27.0743 30.2564 27.1388 30.1652 27.1944 29.986C27.6811 28.4261 28.1723 26.8679 28.6681 25.3111C29.6445 22.2261 30.6214 19.1409 31.5988 16.0554C31.7121 15.6978 31.8185 15.3388 31.9366 14.9528C31.7993 14.9399 31.719 14.9251 31.6359 14.9251C28.5147 14.9251 25.3933 14.9233 22.2716 14.9197C22.1881 14.9079 22.1033 14.9288 22.0351 14.9778C21.967 15.0268 21.921 15.1001 21.907 15.182C21.5477 16.3596 21.1842 17.5359 20.8166 18.7109C20.7012 19.0834 20.5797 19.4546 20.4389 19.894C20.3819 19.7642 20.3524 19.7101 20.3338 19.6533C19.5506 17.142 18.7689 14.6314 17.9888 12.1215C17.9078 11.8585 17.8007 11.7537 17.5082 11.7551C14.4614 11.7666 11.4153 11.7618 8.36915 11.7632C8.25722 11.7632 8.14598 11.7767 7.9956 11.7862C8.07182 12.0404 8.13293 12.2513 8.19748 12.4622C9.69444 17.2009 11.1909 21.9406 12.687 26.6815C12.6945 26.7346 12.7127 26.7857 12.7405 26.8319C12.7683 26.8781 12.805 26.9183 12.8487 26.9504C12.8924 26.9825 12.9421 27.0057 12.995 27.0187C13.0478 27.0317 13.1028 27.0343 13.1567 27.0263C14.701 27.0141 16.2467 27.0202 17.7904 27.0202H18.2106C18.0328 27.5982 17.8735 28.1188 17.7121 28.6386C17.5507 29.1585 17.3887 29.6784 17.2184 30.2246M31.9586 24.9812C31.6097 24.9802 31.2641 25.0468 30.9413 25.1773C30.6186 25.3078 30.3252 25.4997 30.0778 25.7419C29.8305 25.9841 29.634 26.272 29.4997 26.589C29.3654 26.906 29.2958 27.2459 29.295 27.5894C29.2915 28.1096 29.4449 28.6191 29.736 29.0533C30.0271 29.4875 30.4426 29.8268 30.9298 30.0281C31.417 30.2295 31.954 30.2838 32.4726 30.1842C32.9912 30.0846 33.4681 29.8356 33.8428 29.4687C34.2174 29.1019 34.4729 28.6337 34.5769 28.1237C34.6809 27.6136 34.6286 27.0847 34.4268 26.6039C34.2249 26.1232 33.8826 25.7123 33.4431 25.4234C33.0037 25.1345 32.487 24.9806 31.9586 24.9812" fill="#404555"/>
<ellipse opacity="0.5" cx="31.9154" cy="27.6894" rx="2.75229" ry="2.70968" fill="#404555"/>
<path d="M76.6279 2.51291C76.3809 3.19867 76.1552 3.82191 75.9316 4.44647C74.3804 8.7792 72.8313 13.1122 71.2842 17.4453C71.2099 17.6522 71.119 17.7413 70.8789 17.7333C70.2882 17.7152 69.6972 17.7152 69.1059 17.7333C69.0186 17.7472 68.9292 17.7269 68.8574 17.677C68.7855 17.6271 68.7371 17.5517 68.7227 17.4673C67.7357 14.6533 66.744 11.8409 65.7478 9.02996C65.5299 8.41271 65.3109 7.79613 65.0908 7.18021C65.0612 7.09773 65.022 7.01924 64.947 6.8616C64.6332 7.74624 64.3463 8.55439 64.0601 9.36253C63.1061 12.0546 62.1537 14.7475 61.2028 17.4413C61.195 17.4882 61.1776 17.5331 61.1517 17.5734C61.1258 17.6138 61.0918 17.6487 61.0518 17.6762C61.0118 17.7038 60.9666 17.7233 60.9187 17.7338C60.8708 17.7443 60.8212 17.7455 60.7728 17.7373C60.1818 17.718 59.5909 17.7247 58.9999 17.7373C58.9234 17.7503 58.8446 17.7339 58.7804 17.6917C58.7162 17.6495 58.6715 17.5847 58.6559 17.5112C57.4633 14.1633 56.2657 10.817 55.0631 7.4722C54.5265 5.97608 53.9894 4.48017 53.4518 2.98449C53.4036 2.85146 53.363 2.70979 53.3101 2.54483C53.4394 2.53885 53.544 2.53087 53.6479 2.53087C54.2175 2.53087 54.7872 2.53087 55.3569 2.53087C56.2396 2.53087 56.2368 2.53087 56.5107 3.35564C57.6229 6.69864 58.7366 10.0412 59.8516 13.3833C59.8832 13.4798 59.9204 13.5749 59.9816 13.7432C60.0504 13.5576 60.1034 13.4365 60.1454 13.3128C61.3489 9.80175 62.5497 6.2898 63.7478 2.77697C63.7547 2.73014 63.7713 2.68514 63.7965 2.64462C63.8218 2.6041 63.8552 2.56891 63.8948 2.54111C63.9344 2.51332 63.9793 2.4935 64.027 2.48283C64.0747 2.47216 64.1241 2.47085 64.1723 2.47899C64.7302 2.49761 65.2903 2.49495 65.8489 2.47899C65.8949 2.47047 65.9421 2.4709 65.9879 2.48025C66.0337 2.48961 66.077 2.5077 66.1155 2.53347C66.1539 2.55924 66.1867 2.59217 66.2118 2.63032C66.2369 2.66848 66.2539 2.7111 66.2617 2.75568C67.4625 6.29911 68.6698 9.84055 69.8834 13.38C69.9157 13.4758 69.9618 13.5676 70.0327 13.7352C70.107 13.527 70.1586 13.388 70.2054 13.2476C71.3658 9.76716 72.5239 6.28626 73.6798 2.80491C73.6862 2.76036 73.7017 2.71749 73.7253 2.67876C73.7489 2.64003 73.7803 2.6062 73.8175 2.57924C73.8547 2.55228 73.8971 2.53271 73.9422 2.52167C73.9873 2.51063 74.0342 2.50833 74.0802 2.5149C74.9058 2.52821 75.7314 2.52022 76.632 2.52022" fill="#404554"/>
<path d="M134.62 2.5249C135.583 2.5249 136.482 2.51559 137.383 2.53688C137.492 2.53688 137.627 2.68454 137.701 2.79362C138.756 4.35981 139.803 5.92865 140.844 7.50016C141.263 8.12805 141.682 8.7555 142.102 9.38251C142.158 9.46698 142.221 9.5468 142.313 9.67052C142.735 9.04063 143.139 8.44533 143.534 7.84737C144.668 6.14815 145.8 4.44783 146.93 2.7464C146.973 2.67043 147.038 2.6084 147.117 2.56805C147.196 2.5277 147.286 2.51084 147.375 2.51958C148.105 2.53023 148.837 2.52357 149.567 2.52357C149.992 2.52357 149.993 2.52357 149.993 2.92266C149.993 5.38368 149.993 7.8447 149.993 10.3057C149.993 12.6111 149.987 14.9158 150 17.2232C150 17.5365 149.919 17.6356 149.587 17.6223C148.943 17.5963 148.298 17.615 147.653 17.6136C147.538 17.6136 147.423 17.6037 147.278 17.597V6.87692L147.2 6.84766L142.262 13.9494L137.36 6.88225L137.274 6.89555V7.24475C137.274 10.5674 137.274 13.89 137.274 17.2126C137.274 17.6243 137.274 17.6249 136.861 17.6256C136.228 17.6256 135.593 17.615 134.959 17.6309C134.692 17.6376 134.611 17.5558 134.615 17.2984C134.625 15.5956 134.62 13.8928 134.62 12.1901V2.5249" fill="#404554"/>
<path d="M123.494 2.26214C124.722 2.21662 125.946 2.44273 127.07 2.92327C128.195 3.4038 129.191 4.12609 129.983 5.03511C131.067 6.28532 131.701 7.84299 131.787 9.47227C131.921 11.0954 131.53 12.7188 130.666 14.117C129.751 15.6395 128.302 16.7954 126.582 17.3761C124.726 18.0461 122.685 18.0657 120.815 17.4314C119.529 17.046 118.374 16.3327 117.472 15.3666C116.57 14.4005 115.954 13.2172 115.689 11.9413C115.339 10.6476 115.345 9.28778 115.707 7.99714C116.069 6.7065 116.775 5.53003 117.753 4.58481C118.977 3.35492 120.601 2.56936 122.353 2.35992C122.787 2.29939 123.228 2.28476 123.496 2.26281M123.634 4.66862C123.451 4.6786 123.268 4.68259 123.087 4.69922C122.438 4.74534 121.805 4.91505 121.224 5.1986C120.643 5.48214 120.125 5.87393 119.702 6.35143C119.144 6.95987 118.736 7.68185 118.506 8.46381C118.277 9.24577 118.232 10.0676 118.377 10.8684C118.463 11.8551 118.853 12.7942 119.496 13.5653C120.138 14.3364 121.004 14.9044 121.983 15.1965C122.906 15.5313 123.911 15.5942 124.872 15.3774C125.832 15.1605 126.704 14.6736 127.378 13.9779C127.998 13.3677 128.459 12.6241 128.723 11.8082C128.987 10.9924 129.048 10.1275 128.899 9.2847C128.763 8.02321 128.151 6.85443 127.179 6.00245C126.208 5.15048 124.945 4.67528 123.633 4.66796" fill="#404554"/>
<path d="M99.2314 17.593V2.55015C99.3326 2.54017 99.4151 2.52554 99.4977 2.52554C101.55 2.5302 103.605 2.47166 105.653 2.55813C106.862 2.56751 108.052 2.84801 109.13 3.37756C110.207 3.9071 111.143 4.67124 111.863 5.6098C112.478 6.40638 112.919 7.31617 113.157 8.28328C113.395 9.25038 113.427 10.2544 113.249 11.2336C113.111 12.2778 112.732 13.2789 112.141 14.1634C111.551 15.0478 110.763 15.7931 109.835 16.3445C108.446 17.19 106.834 17.6289 105.192 17.6083C103.28 17.6176 101.367 17.6116 99.4544 17.6083C99.3918 17.6083 99.3285 17.5963 99.2321 17.587M101.922 10.0662C101.922 11.6856 101.922 13.3053 101.922 14.9251C101.922 15.106 101.922 15.2457 102.182 15.2397C103.385 15.2131 104.59 15.2563 105.79 15.1692C106.49 15.1337 107.174 14.9523 107.796 14.6375C108.417 14.3228 108.96 13.882 109.388 13.3454C110.248 12.2497 110.632 10.8738 110.461 9.50886C110.383 8.3273 109.863 7.21366 108.997 6.37628C108.131 5.53891 106.979 5.03517 105.757 4.95929C104.601 4.8848 103.437 4.92205 102.278 4.89278C101.991 4.88546 101.914 4.9726 101.916 5.2453C101.928 6.85495 101.922 8.46392 101.922 10.0736" fill="#404554"/>
<path d="M96.0247 4.20172L94.595 6.14061C94.0852 5.8526 93.6015 5.54797 93.0897 5.29788C91.9813 4.70358 90.6937 4.50042 89.4474 4.72319C89.0974 4.76104 88.7648 4.89093 88.4858 5.09873C88.2068 5.30653 87.9921 5.58429 87.865 5.90182C87.7758 6.08956 87.7266 6.29274 87.7204 6.49925C87.7142 6.70575 87.751 6.91135 87.8288 7.10378C87.9066 7.29621 88.0236 7.47153 88.173 7.61928C88.3223 7.76704 88.5009 7.88419 88.6981 7.96376C89.5595 8.30434 90.4418 8.59311 91.3401 8.82845C92.5468 9.08626 93.7065 9.51835 94.7801 10.1102C95.2954 10.4156 95.723 10.8413 96.0236 11.3483C96.3242 11.8553 96.488 12.4273 96.5001 13.0115C96.5573 13.6027 96.485 14.1989 96.288 14.7612C96.091 15.3236 95.7737 15.8395 95.3566 16.2754C94.5618 17.0627 93.5162 17.5688 92.3879 17.7121C90.2295 18.0667 88.0108 17.6748 86.1216 16.6053C85.5299 16.2794 84.9857 15.8736 84.374 15.4745L86.0135 13.5855C86.5454 13.9387 87.0414 14.3172 87.5863 14.6192C88.307 15.0668 89.1211 15.3552 89.9703 15.4636C90.8196 15.572 91.6832 15.4979 92.4994 15.2464C92.7608 15.1718 93.0015 15.0411 93.2035 14.8641C93.4055 14.687 93.5635 14.4682 93.6658 14.2239C93.7681 13.9796 93.8121 13.7161 93.7944 13.4531C93.7767 13.1901 93.6979 12.9343 93.5637 12.7049C93.2394 12.23 92.7382 11.8943 92.1643 11.7677C91.155 11.4604 90.1257 11.217 89.1089 10.9296C88.0504 10.6906 87.0607 10.2256 86.2124 9.56875C85.8505 9.25042 85.5599 8.8637 85.3588 8.43251C85.1576 8.00131 85.05 7.53481 85.0428 7.06183C84.8783 4.50835 86.6066 2.8435 88.994 2.43378C90.2016 2.21344 91.4441 2.24746 92.6369 2.5335C93.8297 2.81954 94.9446 3.35089 95.9057 4.09131C95.9394 4.11592 95.9683 4.14718 96.0274 4.20106" fill="#404554"/>
<path d="M81.7689 2.55081H79.1191V17.6003H81.7689V2.55081Z" fill="#404554"/>
<path d="M53.7036 33.7547C53.7036 32.4045 53.9896 31.2036 54.5616 30.152C55.147 29.0875 55.9451 28.2566 56.9561 27.6594C57.9804 27.0622 59.1245 26.7636 60.3882 26.7636C61.9846 26.7636 63.3282 27.1271 64.419 27.8541C65.5098 28.5812 66.308 29.6003 66.8135 30.9115H65.7759C65.3768 29.8729 64.7116 29.055 63.7804 28.4578C62.8626 27.8476 61.7318 27.5426 60.3882 27.5426C59.3107 27.5426 58.333 27.7957 57.455 28.302C56.577 28.7954 55.8853 29.5159 55.3798 30.4636C54.8743 31.3983 54.6215 32.4954 54.6215 33.7547C54.6215 35.001 54.8743 36.0915 55.3798 37.0262C55.8853 37.948 56.577 38.662 57.455 39.1684C58.333 39.6747 59.3107 39.9278 60.3882 39.9278C61.7318 39.9278 62.8626 39.6292 63.7804 39.032C64.7116 38.4219 65.3768 37.5975 65.7759 36.5589H66.8135C66.308 37.8701 65.5098 38.8892 64.419 39.6162C63.3282 40.3433 61.9846 40.7068 60.3882 40.7068C59.1245 40.7068 57.9804 40.4147 56.9561 39.8305C55.9451 39.2333 55.147 38.4089 54.5616 37.3573C53.9896 36.2927 53.7036 35.0919 53.7036 33.7547Z" fill="#888B94"/>
<path d="M70.5156 26.8999V40.5705H69.6177V26.8999H70.5156Z" fill="#888B94"/>
<path d="M81.3699 40.5705L77.7781 34.7478H77.6983H74.7052V40.5705H73.8072V26.8999H77.6584C79.2148 26.8999 80.3788 27.2569 81.1504 27.971C81.9352 28.685 82.3276 29.6327 82.3276 30.8141C82.3276 31.8657 82.0217 32.7355 81.4098 33.4236C80.8111 34.0987 79.9332 34.5141 78.7758 34.6699L82.4474 40.5705H81.3699ZM74.7052 34.0078H77.6983C78.9355 34.0078 79.86 33.7157 80.4719 33.1315C81.0838 32.5473 81.3898 31.7748 81.3898 30.8141C81.3898 28.724 80.146 27.6789 77.6584 27.6789H74.7052V34.0078Z" fill="#888B94"/>
<path d="M84.4337 33.7547C84.4337 32.4045 84.7198 31.2036 85.2918 30.152C85.8771 29.0875 86.6753 28.2566 87.6863 27.6594C88.7106 27.0622 89.8546 26.7636 91.1184 26.7636C92.7147 26.7636 94.0583 27.1271 95.1491 27.8541C96.2399 28.5812 97.0381 29.6003 97.5436 30.9115H96.506C96.1069 29.8729 95.4418 29.055 94.5106 28.4578C93.5927 27.8476 92.462 27.5426 91.1184 27.5426C90.0409 27.5426 89.0631 27.7957 88.1851 28.302C87.3071 28.7954 86.6154 29.5159 86.1099 30.4636C85.6044 31.3983 85.3516 32.4954 85.3516 33.7547C85.3516 35.001 85.6044 36.0915 86.1099 37.0262C86.6154 37.948 87.3071 38.662 88.1851 39.1684C89.0631 39.6747 90.0409 39.9278 91.1184 39.9278C92.462 39.9278 93.5927 39.6292 94.5106 39.032C95.4418 38.4219 96.1069 37.5975 96.506 36.5589H97.5436C97.0381 37.8701 96.2399 38.8892 95.1491 39.6162C94.0583 40.3433 92.7147 40.7068 91.1184 40.7068C89.8546 40.7068 88.7106 40.4147 87.6863 39.8305C86.6753 39.2333 85.8771 38.4089 85.2918 37.3573C84.7198 36.2927 84.4337 35.0919 84.4337 33.7547Z" fill="#888B94"/>
<path d="M101.246 39.8305H106.454V40.5705H100.348V26.8999H101.246V39.8305Z" fill="#888B94"/>
<path d="M109.391 27.6399V33.3457H114.978V34.0857H109.391V39.8305H115.577V40.5705H108.493V26.8999H115.577V27.6399H109.391Z" fill="#888B94"/>
<path d="M7.73853 11.0274H17.7483L22.7535 26.8065H12.7438L7.73853 11.0274Z" fill="#F1C12B"/>
<path d="M32.1786 14.3671H22.0477L16.9819 30.1462H27.1128L32.1786 14.3671Z" fill="white"/>
</svg>
